<svg width="512" height="512" viewBox="0 0 512 512" fill="none" xmlns="http://www.w3.org/2000/svg">
<mask id="mask0_182_114" style="mask-type:luminance" maskUnits="userSpaceOnUse" x="11" y="11" width="490" height="490">
<path d="M256.003 11.224C391.198 11.224 500.778 120.815 500.778 256.02C500.778 391.192 391.198 500.772 256.003 500.772C120.82 500.772 11.2275 391.192 11.2275 256.02C11.2293 120.815 120.82 11.224 256.003 11.224Z" fill="white"/>
</mask>
<g mask="url(#mask0_182_114)">
<path d="M11.251 11.3197H745.534V500.859H11.251" fill="#132B83"/>
<path d="M378.381 11.3396H334.279L194.826 104.309L55.3723 11.3396H11.251V40.758L150.703 133.717L11.251 226.686V256.105H55.3723L194.826 163.115L334.279 256.105H378.381V226.686L238.929 133.717L378.381 40.758V11.3396Z" fill="white"/>
<path d="M11.251 11.3396V26.0335L194.826 148.432V133.717L11.251 11.3396ZM378.381 241.391L194.826 119.014V133.717L378.381 256.105V241.391Z" fill="#E00021"/>
<path d="M11.251 256.105H33.2909L194.826 148.432V133.717L11.251 256.105ZM356.341 11.3396L194.826 119.034V133.738L378.359 11.3396H356.341Z" fill="#E00021"/>
<path d="M378.381 112.298H210.13V11.3396H179.521V112.298H11.251V155.124H179.521V256.105H210.13V155.124H378.381V112.298Z" fill="#DE0023"/>
<path d="M167.262 11.3396V100.061H11.251V112.298H179.521V11.3396H167.262ZM11.251 167.364H167.262V256.105H179.521V155.124H11.251V167.364ZM378.381 155.124H210.13V256.105H222.369V167.364H378.381V155.124ZM378.381 100.061H222.369V11.3396H210.13V112.298H378.381V100.061Z" fill="white"/>
<path d="M264.33 397.856C264.383 397.644 264.289 397.475 264.121 397.35L226.132 374.833L250.606 338.11C250.66 338.032 250.686 337.938 250.682 337.843C250.679 337.748 250.644 337.657 250.585 337.583C250.437 337.415 250.236 337.31 250.068 337.415L208.748 353.057L195.256 311.083C195.129 310.682 194.497 310.682 194.371 311.083L180.836 353.057L139.558 337.415C139.467 337.369 139.362 337.361 139.265 337.392C139.168 337.424 139.088 337.492 139.042 337.583C138.915 337.753 138.915 337.984 139.02 338.11L163.495 374.833L125.506 397.35C125.327 397.475 125.242 397.644 125.283 397.856C125.306 397.949 125.358 398.033 125.432 398.094C125.507 398.155 125.599 398.19 125.695 398.193L169.672 402.03L163.612 445.752C163.579 445.922 163.695 446.131 163.885 446.216C164.085 446.279 164.275 446.258 164.401 446.131L194.822 414.13L225.243 446.131C225.326 446.216 225.454 446.258 225.581 446.258C225.644 446.258 225.718 446.258 225.781 446.216C225.869 446.176 225.942 446.11 225.992 446.027C226.041 445.944 226.063 445.848 226.056 445.752L219.996 402.03L263.971 398.193C264.121 398.193 264.289 398.065 264.33 397.856ZM583.123 406.836L594.253 390.096C594.314 390.018 594.348 389.922 594.348 389.822C594.348 389.723 594.314 389.627 594.253 389.549C594.127 389.422 593.874 389.337 593.704 389.422L574.941 396.546L568.807 377.405C568.658 377.026 568.046 377.026 567.921 377.405L561.766 396.546L542.961 389.422C542.791 389.337 542.518 389.381 542.475 389.549C542.419 389.627 542.385 389.72 542.377 389.817C542.37 389.913 542.389 390.01 542.433 390.096L553.565 406.836L536.28 417.123C536.198 417.167 536.134 417.236 536.096 417.319C536.057 417.403 536.048 417.497 536.068 417.587C536.089 417.68 536.135 417.765 536.202 417.832C536.27 417.9 536.355 417.946 536.448 417.966L556.475 419.695L553.733 439.596C553.692 439.808 553.818 440.039 553.988 440.102C554.198 440.144 554.367 440.144 554.537 439.976L568.366 425.43L582.238 439.976C582.343 440.102 582.469 440.145 582.595 440.145C582.637 440.145 582.72 440.104 582.783 440.104C582.995 440.019 583.08 439.809 583.08 439.598L580.296 419.697L600.324 417.968C600.417 417.948 600.502 417.902 600.569 417.834C600.637 417.767 600.683 417.682 600.703 417.589C600.723 417.499 600.713 417.406 600.676 417.322C600.638 417.238 600.574 417.169 600.494 417.125L583.123 406.836ZM468.778 225.738L479.868 209.01C479.929 208.934 479.962 208.839 479.962 208.742C479.962 208.645 479.929 208.55 479.868 208.474C479.699 208.304 479.529 208.252 479.319 208.326L460.556 215.441L454.4 196.32C454.274 195.929 453.642 195.929 453.515 196.32L447.381 215.441L428.578 208.326C428.345 208.252 428.175 208.304 428.092 208.474C427.966 208.642 427.944 208.864 428.029 209.01L439.181 225.738L421.895 236.014C421.809 236.055 421.739 236.125 421.697 236.211C421.655 236.297 421.643 236.395 421.664 236.489C421.695 236.586 421.752 236.672 421.83 236.738C421.908 236.804 422.004 236.846 422.105 236.859L442.089 238.588L439.349 258.507C439.307 258.718 439.434 258.888 439.602 258.971C439.772 259.013 439.981 259.013 440.151 258.888L453.98 244.31L467.852 258.888C467.952 258.971 468.079 259.016 468.209 259.013C468.251 259.013 468.336 259.013 468.379 258.971C468.61 258.888 468.695 258.718 468.695 258.507L465.913 238.588L485.941 236.859C486.034 236.843 486.12 236.799 486.188 236.733C486.256 236.666 486.302 236.582 486.32 236.489C486.36 236.299 486.279 236.077 486.109 236.014L468.778 225.738ZM556.434 114.65L553.692 134.582C553.674 134.678 553.69 134.778 553.736 134.864C553.783 134.95 553.857 135.018 553.947 135.057C554.156 135.12 554.326 135.098 554.496 134.941L568.324 120.374L582.196 134.941C582.281 135.057 582.427 135.098 582.554 135.098C582.595 135.098 582.68 135.079 582.722 135.057C582.818 135.021 582.901 134.956 582.958 134.871C583.015 134.786 583.044 134.684 583.04 134.582L580.256 114.65L600.284 112.921C600.376 112.905 600.461 112.863 600.528 112.799C600.596 112.735 600.643 112.653 600.663 112.562C600.705 112.361 600.622 112.15 600.454 112.087L583.168 101.811L594.298 85.0834C594.425 84.9028 594.425 84.6932 594.298 84.5343C594.172 84.3862 593.919 84.323 593.749 84.3862L574.986 91.5118L568.852 72.38C568.705 71.9899 568.093 71.9899 567.967 72.38L561.813 91.5118L543.008 84.3862C542.838 84.323 542.565 84.3645 542.522 84.5343C542.465 84.6132 542.431 84.7061 542.424 84.803C542.417 84.8999 542.436 84.9969 542.48 85.0834L553.612 101.811L536.325 112.087C536.243 112.133 536.179 112.204 536.141 112.29C536.103 112.375 536.094 112.471 536.115 112.562C536.157 112.73 536.325 112.9 536.494 112.921L556.434 114.65ZM702.317 205.985C702.359 205.795 702.276 205.573 702.108 205.51L684.82 195.232L695.952 178.504C696.037 178.335 696.037 178.114 695.911 177.988C695.784 177.818 695.573 177.757 695.405 177.84L676.6 184.946L670.462 165.814C670.316 165.424 669.704 165.424 669.577 165.814L663.423 184.946L644.66 177.84C644.449 177.757 644.218 177.818 644.133 177.988C644.071 178.06 644.038 178.152 644.038 178.246C644.038 178.341 644.071 178.432 644.133 178.504L655.265 195.232L637.934 205.51C637.852 205.556 637.788 205.627 637.751 205.713C637.713 205.798 637.704 205.894 637.724 205.985C637.749 206.081 637.803 206.168 637.878 206.234C637.953 206.3 638.046 206.341 638.145 206.353L658.173 208.104L655.389 228.005C655.389 228.225 655.474 228.417 655.684 228.478C655.853 228.541 656.086 228.52 656.189 228.373L670.061 213.806L683.913 228.373C683.955 228.422 684.007 228.461 684.065 228.487C684.124 228.512 684.187 228.524 684.251 228.521C684.334 228.521 684.398 228.5 684.482 228.48C684.652 228.397 684.779 228.205 684.737 228.007L681.995 208.105L701.98 206.355C702.062 206.326 702.136 206.277 702.195 206.212C702.253 206.147 702.296 206.069 702.317 205.985ZM597.795 269.511L592.904 257.537C592.777 257.199 592.188 257.199 592.06 257.537L587.191 269.511L574.289 270.439C574.199 270.438 574.111 270.466 574.039 270.519C573.966 270.572 573.913 270.648 573.887 270.733C573.846 270.923 573.888 271.135 574.014 271.239L583.88 279.588L580.802 292.11C580.786 292.196 580.793 292.284 580.823 292.366C580.853 292.448 580.904 292.52 580.972 292.575C581.14 292.701 581.351 292.66 581.476 292.575L592.438 285.787L603.443 292.575C603.5 292.628 603.575 292.658 603.653 292.66C603.779 292.66 603.864 292.618 603.971 292.575C604.095 292.448 604.18 292.28 604.139 292.11L601.039 279.588L610.863 271.239C611.031 271.113 611.073 270.901 611.031 270.733C610.948 270.566 610.778 270.439 610.61 270.439L597.795 269.511Z" fill="white"/>
</g>
</svg>
