<svg width="24" height="24" viewBox="0 0 24 24" fill="none" xmlns="http://www.w3.org/2000/svg">
<g clip-path="url(#clip0_220_15787)">
<path d="M12 24C18.6274 24 24 18.6274 24 12C24 5.37258 18.6274 0 12 0C5.37258 0 0 5.37258 0 12C0 18.6274 5.37258 24 12 24Z" fill="#F0F0F0"/>
<path d="M23.2536 7.82617H0.746391C0.264047 9.12616 0 10.5322 0 12.0001C0 13.4679 0.264047 14.874 0.746391 16.174H23.2537C23.736 14.874 24 13.4679 24 12.0001C24 10.5322 23.736 9.12616 23.2536 7.82617Z" fill="#D80027"/>
<path d="M12.0009 -0.000976562C8.36383 -0.000976562 5.10494 1.61734 2.9043 4.17291H21.0975C18.8969 1.61734 15.638 -0.000976562 12.0009 -0.000976562Z" fill="#0052B4"/>
<path d="M21.0956 19.8252H2.90234C5.10298 22.3808 8.36188 23.9991 11.999 23.9991C15.636 23.9991 18.8949 22.3808 21.0956 19.8252Z" fill="#0052B4"/>
</g>
<defs>
<clipPath id="clip0_220_15787">
<rect width="24" height="24" fill="white"/>
</clipPath>
</defs>
</svg>
