<svg width="24" height="24" viewBox="0 0 24 24" fill="none" xmlns="http://www.w3.org/2000/svg">
<g clip-path="url(#clip0_220_15748)">
<path d="M0 11.9991C0 13.467 0.264047 14.873 0.746391 16.173L12 17.2165L23.2536 16.173C23.736 14.873 24 13.467 24 11.9991C24 10.5313 23.736 9.12521 23.2536 7.82522L12 6.78174L0.746391 7.82522C0.264047 9.12521 0 10.5313 0 11.9991Z" fill="#FFDA44"/>
<path d="M23.2533 7.82562C21.5578 3.25606 17.1593 -0.000488281 11.9997 -0.000488281C6.84012 -0.000488281 2.44161 3.25606 0.746094 7.82562H23.2533Z" fill="#D80027"/>
<path d="M0.746094 16.1738C2.44161 20.7434 6.84012 23.9999 11.9997 23.9999C17.1593 23.9999 21.5578 20.7434 23.2533 16.1738H0.746094Z" fill="#D80027"/>
</g>
<defs>
<clipPath id="clip0_220_15748">
<rect width="24" height="24" fill="white"/>
</clipPath>
</defs>
</svg>
