<svg width="24" height="24" viewBox="0 0 24 24" fill="none" xmlns="http://www.w3.org/2000/svg">
<g clip-path="url(#clip0_220_15786)">
<path d="M23.2536 16.1745C23.736 14.8745 24 13.4684 24 12.0006C24 10.5327 23.736 9.12672 23.2536 7.82669L12 6.7832L0.746391 7.82669C0.264047 9.12672 0 10.5327 0 12.0006C0 13.4684 0.264047 14.8745 0.746391 16.1745L12 17.2179L23.2536 16.1745Z" fill="#FFDA44"/>
<path d="M11.9998 23.9999C17.1593 23.9999 21.5578 20.7434 23.2533 16.1738H0.746094C2.44166 20.7434 6.84013 23.9999 11.9998 23.9999Z" fill="#0052B4"/>
<path d="M11.9998 0.000976562C6.84013 0.000976562 2.44166 3.25748 0.746094 7.82709H23.2534C21.5578 3.25748 17.1593 0.000976562 11.9998 0.000976562Z" fill="#6DA544"/>
</g>
<defs>
<clipPath id="clip0_220_15786">
<rect width="24" height="24" fill="white"/>
</clipPath>
</defs>
</svg>
