<svg width="24" height="24" viewBox="0 0 24 24" fill="none" xmlns="http://www.w3.org/2000/svg">
<g clip-path="url(#clip0_220_15738)">
<path d="M23.2536 16.1745C23.736 14.8745 24 13.4684 24 12.0006C24 10.5327 23.736 9.12662 23.2536 7.82669L12 6.7832L0.746391 7.82669C0.264 9.12662 0 10.5327 0 12.0006C0 13.4684 0.264 14.8745 0.746391 16.1745L12 17.2179L23.2536 16.1745Z" fill="#6DA544"/>
<path d="M23.2533 7.82562C21.5578 3.25601 17.1593 -0.000488281 11.9997 -0.000488281C6.84013 -0.000488281 2.44161 3.25601 0.746094 7.82562H23.2533Z" fill="#FFDA44"/>
<path d="M11.9997 24.0009C17.1593 24.0009 21.5578 20.7444 23.2533 16.1748H0.746094C2.44161 20.7444 6.84012 24.0009 11.9997 24.0009Z" fill="#D80027"/>
</g>
<defs>
<clipPath id="clip0_220_15738">
<rect width="24" height="24" fill="white"/>
</clipPath>
</defs>
</svg>
