<svg width="512" height="512" viewBox="0 0 512 512" fill="none" xmlns="http://www.w3.org/2000/svg">
<path d="M256.003 5.12061C394.566 5.12061 506.886 117.45 506.886 256.003C506.886 394.566 394.566 506.886 256.003 506.886C117.45 506.886 5.12061 394.566 5.12061 256.003C5.12061 117.45 117.45 5.12061 256.003 5.12061Z" fill="#D6D4D1"/>
<mask id="mask0_182_131" style="mask-type:luminance" maskUnits="userSpaceOnUse" x="11" y="11" width="490" height="490">
<path d="M256.003 500.752C391.175 500.752 500.752 391.175 500.752 256.003C500.752 120.832 391.175 11.2546 256.003 11.2546C120.832 11.2546 11.2546 120.832 11.2546 256.003C11.2546 391.175 120.832 500.752 256.003 500.752Z" fill="white"/>
</mask>
<g mask="url(#mask0_182_131)">
<path d="M11.2131 11.2329H745.503V500.731H11.2131V11.2329Z" fill="#012169"/>
<path d="M378.357 11.2546H334.214L194.784 104.201L55.3146 11.2546H11.2131V40.6731L150.641 133.628L11.2131 226.585V256.003H55.3146L194.784 163.027L334.214 256.003H378.357V226.585L238.886 133.628L378.357 40.6731V11.2546Z" fill="white"/>
<path d="M11.2131 11.2546V25.9485L194.784 148.333V133.628L11.2131 11.2546ZM378.357 241.301L194.784 118.925V133.628L378.357 256.003V241.301Z" fill="#CB152B"/>
<path d="M11.2131 256.003H33.2729L194.784 148.333V133.628L11.2131 256.003ZM356.317 11.2546L194.784 118.925V133.65L378.316 11.2546H356.317Z" fill="#CB152B"/>
<path d="M378.357 112.19H210.09V11.2546H179.48V112.19H11.2131V155.038H179.48V256.003H210.09V155.038H378.357V112.19Z" fill="#CB152B"/>
<path d="M167.223 11.2546V99.9524H11.2131V112.19H179.48V11.2546H167.223ZM11.2131 167.286H167.223V256.003H179.48V155.038H11.2131V167.286ZM378.357 155.038H210.09V256.003H222.328V167.286H378.357V155.038ZM378.357 99.9524H222.328V11.2546H210.09V112.19H378.357V99.9524Z" fill="white"/>
<path d="M341.338 326.393C341.316 326.351 341.275 326.267 341.17 326.267H332.251L329.511 317.793C329.469 317.667 329.204 317.667 329.164 317.793L326.422 326.267H317.505C317.42 326.267 317.356 326.351 317.335 326.393C317.313 326.478 317.335 326.563 317.398 326.604L324.607 331.833L321.867 340.307C321.845 340.413 321.867 340.494 321.906 340.538C321.991 340.579 322.054 340.579 322.118 340.538L329.326 335.309L336.537 340.538C336.568 340.579 336.609 340.579 336.651 340.579C336.672 340.579 336.714 340.579 336.757 340.538C336.801 340.496 336.821 340.413 336.821 340.307L334.079 331.833L341.287 326.604C341.338 326.561 341.36 326.478 341.338 326.393ZM272.478 283.177L269.158 293.378C269.158 293.463 269.158 293.505 269.22 293.59C269.261 293.653 269.368 293.653 269.409 293.59L278.085 287.266L286.771 293.59C286.813 293.59 286.834 293.653 286.876 293.653C286.898 293.653 286.939 293.59 286.961 293.59C287.024 293.505 287.046 293.463 287.024 293.378L283.704 283.177L292.399 276.853C292.441 276.811 292.484 276.726 292.463 276.683C292.441 276.598 292.378 276.515 292.293 276.515H281.542L278.242 266.312C278.2 266.185 277.958 266.185 277.895 266.312L274.575 276.515H263.846C263.761 276.515 263.687 276.598 263.666 276.683C263.644 276.725 263.687 276.81 263.74 276.853L272.478 283.177ZM219.008 342.665L215.708 332.464C215.666 332.294 215.403 332.294 215.361 332.464L212.061 342.665H201.332C201.249 342.665 201.175 342.707 201.153 342.792C201.131 342.833 201.153 342.918 201.227 342.962L209.901 349.285L206.57 359.509C206.57 359.594 206.57 359.679 206.644 359.742C206.676 359.762 206.712 359.773 206.75 359.773C206.787 359.773 206.824 359.762 206.855 359.742L215.529 353.418L224.235 359.742C224.257 359.742 224.298 359.783 224.318 359.783C224.34 359.783 224.381 359.742 224.403 359.742C224.433 359.712 224.455 359.675 224.466 359.634C224.477 359.593 224.477 359.55 224.466 359.509L221.146 349.285L229.822 342.962C229.885 342.92 229.927 342.835 229.885 342.792C229.863 342.707 229.8 342.665 229.717 342.665H219.008Z" fill="#CB152B"/>
<path d="M348.633 324.032C348.612 323.947 348.549 323.906 348.464 323.906H333.961L329.491 310.097C329.449 309.971 329.184 309.971 329.144 310.097L324.674 323.906H310.169C310.086 323.906 310.012 323.947 309.991 324.032C309.991 324.072 309.991 324.2 310.065 324.242L321.785 332.758L317.295 346.545C317.273 346.587 317.317 346.693 317.358 346.778H317.57L329.29 338.24L341.011 346.778H341.127C341.212 346.778 341.295 346.693 341.295 346.589C341.295 346.547 341.295 346.506 341.273 346.464L336.804 332.76L348.525 324.244C348.633 324.2 348.655 324.072 348.633 324.032ZM341.297 326.604L334.088 331.833L336.83 340.307C336.851 340.413 336.83 340.494 336.766 340.538C336.745 340.579 336.703 340.579 336.66 340.579C336.617 340.579 336.586 340.579 336.546 340.538L329.335 335.309L322.127 340.538C322.095 340.558 322.059 340.569 322.021 340.569C321.984 340.569 321.947 340.558 321.915 340.538C321.876 340.496 321.854 340.413 321.854 340.307L324.614 331.833L317.405 326.604C317.342 326.563 317.32 326.478 317.342 326.393C317.364 326.351 317.427 326.267 317.512 326.267H326.429L329.171 317.793C329.211 317.667 329.476 317.667 329.518 317.793L332.278 326.267H341.197C341.28 326.267 341.343 326.351 341.365 326.393C341.36 326.478 341.338 326.561 341.297 326.604ZM299.789 274.281C299.767 274.239 299.704 274.154 299.608 274.154H283.292L278.264 258.682C278.222 258.512 277.958 258.512 277.917 258.682L272.868 274.154H256.574C256.48 274.154 256.417 274.239 256.395 274.281C256.395 274.364 256.395 274.449 256.437 274.49L269.632 284.103L264.594 299.576C264.552 299.66 264.594 299.745 264.668 299.787C264.71 299.828 264.816 299.828 264.858 299.787L278.043 290.237L291.24 299.787C291.262 299.828 291.303 299.828 291.325 299.828H291.346C291.39 299.825 291.432 299.807 291.463 299.775C291.494 299.744 291.513 299.703 291.516 299.659C291.516 299.617 291.495 299.532 291.475 299.532L286.448 284.101L299.655 274.489C299.789 274.449 299.789 274.364 299.789 274.281ZM292.421 276.853L283.726 283.177L287.067 293.378C287.067 293.463 287.046 293.505 286.983 293.59C286.961 293.59 286.919 293.653 286.898 293.653C286.856 293.653 286.836 293.59 286.793 293.59L278.117 287.266L269.431 293.59C269.368 293.653 269.283 293.653 269.22 293.59C269.158 293.505 269.137 293.463 269.158 293.378L272.478 283.177L263.783 276.853C263.761 276.811 263.72 276.726 263.741 276.683C263.763 276.598 263.826 276.515 263.911 276.515H274.621L277.94 266.312C277.982 266.185 278.224 266.185 278.287 266.312L281.587 276.515H292.338C292.423 276.515 292.497 276.598 292.517 276.683C292.515 276.726 292.463 276.81 292.421 276.853ZM237.231 340.433C237.217 340.397 237.193 340.365 237.161 340.343C237.129 340.32 237.091 340.308 237.052 340.307H220.756L215.708 324.791C215.666 324.621 215.403 324.621 215.361 324.791L210.332 340.307H194.006C193.921 340.307 193.858 340.348 193.838 340.433C193.816 340.475 193.838 340.558 193.901 340.601L207.097 350.214L202.038 365.73C202.038 365.771 202.06 365.856 202.132 365.899C202.174 365.939 202.258 365.939 202.322 365.899L215.509 356.328L228.706 365.899C228.727 365.939 228.769 365.939 228.812 365.939H228.834C228.917 365.939 229.002 365.856 229.002 365.73C229.002 365.73 229.002 365.688 228.98 365.645L223.952 350.214L237.159 340.601C237.231 340.558 237.253 340.476 237.231 340.433ZM229.844 342.962L221.168 349.285L224.488 359.487C224.51 359.572 224.488 359.657 224.425 359.698C224.403 359.698 224.362 359.74 224.34 359.74C224.318 359.74 224.277 359.698 224.257 359.698L215.551 353.375L206.875 359.698C206.844 359.719 206.807 359.73 206.77 359.73C206.732 359.73 206.695 359.719 206.664 359.698C206.615 359.639 206.588 359.564 206.59 359.487L209.921 349.285L201.247 342.962C201.173 342.92 201.151 342.835 201.173 342.792C201.205 342.707 201.267 342.665 201.352 342.665H212.081L215.381 332.442C215.389 332.402 215.411 332.366 215.442 332.341C215.474 332.315 215.514 332.301 215.554 332.301C215.595 332.301 215.635 332.315 215.666 332.341C215.698 332.366 215.72 332.402 215.728 332.442L219.028 342.665H229.779C229.842 342.665 229.927 342.707 229.947 342.792C229.948 342.835 229.907 342.92 229.844 342.962Z" fill="white"/>
<path d="M281.743 435.803L277.874 423.913C277.832 423.745 277.568 423.745 277.527 423.913L273.669 435.803H261.126C261.041 435.803 260.969 435.888 260.947 435.971C260.926 436.013 260.947 436.098 260.989 436.141L271.138 443.519L267.228 455.45C267.228 455.556 267.249 455.639 267.312 455.683C267.365 455.724 267.45 455.724 267.511 455.683L277.673 448.283L287.822 455.683C287.844 455.683 287.886 455.724 287.929 455.724C287.972 455.724 287.992 455.683 288.045 455.683C288.086 455.641 288.108 455.556 288.086 455.45L284.197 443.519L294.347 436.141C294.41 436.099 294.432 436.014 294.41 435.971C294.388 435.888 294.325 435.803 294.229 435.803H281.743Z" fill="#CB152B"/>
<path d="M301.77 433.569C301.749 433.527 301.685 433.442 301.6 433.442H283.482L277.875 416.241C277.834 416.072 277.592 416.072 277.529 416.241L271.942 433.442H253.823C253.738 433.442 253.675 433.527 253.655 433.569C253.634 433.654 253.655 433.738 253.719 433.78L268.38 444.446L262.762 461.69C262.743 461.732 262.762 461.837 262.837 461.878C262.868 461.898 262.905 461.909 262.942 461.909C262.98 461.909 263.016 461.898 263.048 461.878L277.709 451.254L292.36 461.878C292.401 461.92 292.423 461.92 292.466 461.92C292.58 461.92 292.665 461.835 292.665 461.732C292.665 461.69 292.643 461.647 292.643 461.605L287.046 444.446L301.707 433.78C301.77 433.737 301.77 433.652 301.77 433.569ZM294.413 436.139L284.242 443.518L288.131 455.448C288.153 455.554 288.131 455.637 288.068 455.681C288.046 455.681 287.994 455.722 287.952 455.722C287.911 455.722 287.889 455.681 287.846 455.681L277.707 448.281L267.556 455.681C267.493 455.722 267.41 455.722 267.368 455.681C267.294 455.639 267.273 455.554 267.294 455.448L271.183 443.518L261.032 436.139C260.971 436.097 260.949 436.013 260.971 435.969C260.992 435.886 261.054 435.801 261.149 435.801H273.692L277.55 423.911C277.613 423.743 277.856 423.743 277.897 423.911L281.766 435.801H294.298C294.394 435.801 294.457 435.886 294.478 435.969C294.497 436.013 294.455 436.097 294.413 436.139Z" fill="white"/>
</g>
</svg>
