<svg width="224" height="48" viewBox="0 0 224 48" fill="none" xmlns="http://www.w3.org/2000/svg">
<g clip-path="url(#clip0_6_31)">
<path d="M48 48H0V0H48V48ZM24.5 14H20.0166V21.8213H11.5029V14H7V34.2031H11.5029V25.7754H20.0166V34.2031H24.5195V17.9248H29.9551C30.7437 17.9249 31.1375 18.3098 31.1377 19.0791V22.5068H31.1357V27.4336C31.1359 31.0687 34.0827 34.0153 37.7178 34.0156H39.8828V29.5098H37.7178C36.5714 29.5095 35.6417 28.58 35.6416 27.4336L35.6406 19.0791C35.6408 18.3098 36.0356 17.9249 36.8242 17.9248H41.8467V14H24.5195V17.9248H24.5V14Z" fill="#191919"/>
</g>
<path fill-rule="evenodd" clip-rule="evenodd" d="M101.277 17.1561C102.557 17.1561 103.748 17.3603 104.851 17.769C105.962 18.1693 106.93 18.7743 107.755 19.5833C108.588 20.3924 109.237 21.4101 109.7 22.6362C110.163 23.854 110.394 25.2802 110.394 26.915V28.3787H97.1857V28.3916C97.1857 29.3424 97.3625 30.1638 97.716 30.8561C98.078 31.5484 98.5873 32.0828 99.244 32.4582C99.9006 32.8335 100.679 33.0209 101.58 33.0209C102.178 33.0209 102.725 32.9375 103.222 32.7707C103.718 32.6039 104.144 32.3538 104.497 32.0202C104.851 31.6866 105.12 31.2775 105.305 30.7937L110.281 31.1192C110.028 32.3036 109.51 33.3381 108.727 34.2223C107.953 35.098 106.951 35.7818 105.722 36.2739C104.501 36.7576 103.091 37 101.492 37C99.4966 37 97.7788 36.5994 96.3392 35.7986C94.9082 34.9895 93.8052 33.8463 93.0308 32.37C92.2564 30.8854 91.8696 29.1295 91.8696 27.1028C91.8696 25.126 92.2563 23.3909 93.0308 21.8979C93.8053 20.4048 94.8957 19.2411 96.3016 18.407C97.7159 17.5729 99.3744 17.1561 101.277 17.1561ZM101.365 21.1345C100.549 21.1345 99.8247 21.3226 99.1933 21.6979C98.5705 22.0649 98.0819 22.5612 97.7283 23.1868C97.4023 23.756 97.2247 24.3858 97.1922 25.0756H105.331C105.331 24.3083 105.162 23.6284 104.826 23.0362C104.489 22.4441 104.021 21.9813 103.424 21.6477C102.834 21.3058 102.148 21.1345 101.365 21.1345Z" fill="black"/>
<path fill-rule="evenodd" clip-rule="evenodd" d="M136.712 17.1561C138.673 17.1561 140.366 17.5729 141.789 18.407C143.22 19.2327 144.323 20.3926 145.097 21.8857C145.872 23.3704 146.259 25.1055 146.259 27.0906C146.259 29.059 145.872 30.7896 145.097 32.2826C144.323 33.7673 143.22 34.9272 141.789 35.7613C140.366 36.587 138.673 37 136.712 37C134.751 37 133.054 36.5871 131.623 35.7613C130.2 34.9272 129.102 33.7673 128.328 32.2826C127.553 30.7896 127.166 29.059 127.166 27.0906C127.166 25.1054 127.553 23.3704 128.328 21.8857C129.102 20.3927 130.2 19.2327 131.623 18.407C133.054 17.5729 134.751 17.1561 136.712 17.1561ZM136.737 21.2219C135.837 21.222 135.079 21.4767 134.465 21.9854C133.859 22.4942 133.4 23.1869 133.088 24.0627C132.785 24.9384 132.634 25.9351 132.634 27.0526C132.634 28.1703 132.785 29.1674 133.088 30.0432C133.4 30.919 133.859 31.611 134.465 32.1198C135.079 32.6202 135.837 32.871 136.737 32.8711C137.63 32.8711 138.375 32.6203 138.973 32.1198C139.57 31.6111 140.021 30.9189 140.324 30.0432C140.635 29.1674 140.791 28.1703 140.791 27.0526C140.791 25.935 140.635 24.9385 140.324 24.0627C140.021 23.1869 139.571 22.4942 138.973 21.9854C138.375 21.4765 137.63 21.2219 136.737 21.2219Z" fill="black"/>
<path fill-rule="evenodd" clip-rule="evenodd" d="M200.964 17.1561C202.925 17.1561 204.618 17.5728 206.04 18.407C207.472 19.2327 208.574 20.3927 209.349 21.8857C210.123 23.3704 210.511 25.1055 210.511 27.0906C210.511 29.0589 210.123 30.7896 209.349 32.2826C208.574 33.7673 207.472 34.9272 206.04 35.7613C204.618 36.5871 202.925 37 200.964 37C199.002 37 197.306 36.587 195.875 35.7613C194.452 34.9272 193.353 33.7673 192.579 32.2826C191.804 30.7896 191.417 29.0589 191.417 27.0906C191.417 25.1055 191.804 23.3704 192.579 21.8857C193.353 20.3926 194.452 19.2327 195.875 18.407C197.306 17.5729 199.002 17.1561 200.964 17.1561ZM200.989 21.2219C200.088 21.2219 199.331 21.4766 198.716 21.9854C198.11 22.4942 197.651 23.1869 197.34 24.0627C197.037 24.9385 196.885 25.935 196.885 27.0526C196.885 28.1703 197.037 29.1674 197.34 30.0432C197.651 30.9189 198.11 31.6111 198.716 32.1198C199.331 32.6203 200.088 32.8711 200.989 32.8711C201.881 32.8711 202.626 32.6203 203.224 32.1198C203.822 31.611 204.272 30.919 204.575 30.0432C204.887 29.1674 205.043 28.1703 205.043 27.0526C205.043 25.9351 204.887 24.9384 204.575 24.0627C204.272 23.1869 203.822 22.4942 203.224 21.9854C202.626 21.4767 201.881 21.2219 200.989 21.2219Z" fill="black"/>
<path d="M154.646 17.4063H158.296V21.4097H154.646V30.7185C154.646 31.2106 154.723 31.5944 154.874 31.8697C155.026 32.1366 155.236 32.3247 155.505 32.4331C155.783 32.5415 156.103 32.5958 156.465 32.5958C156.718 32.5958 156.97 32.5744 157.223 32.5327C157.475 32.4827 157.669 32.4452 157.803 32.4202L158.649 36.3864C158.38 36.4698 158.001 36.5662 157.513 36.6746C157.025 36.7913 156.431 36.8624 155.732 36.8875C154.436 36.9375 153.3 36.7662 152.323 36.3742C151.355 35.9822 150.601 35.3735 150.062 34.5477C149.524 33.722 149.259 32.679 149.267 31.4195V21.4097H146.615V17.4063H149.267V12.8021H154.646V17.4063Z" fill="black"/>
<path d="M187.033 17.4063H190.683V21.4097H187.033V30.7185C187.033 31.2104 187.108 31.5944 187.26 31.8697C187.411 32.1366 187.622 32.3247 187.891 32.4331C188.169 32.5415 188.489 32.5958 188.851 32.5958C189.104 32.5958 189.356 32.5744 189.609 32.5327C189.861 32.4827 190.055 32.4452 190.19 32.4202L191.036 36.3864C190.766 36.4698 190.387 36.5661 189.899 36.6746C189.411 36.7913 188.817 36.8624 188.119 36.8875C186.822 36.9375 185.686 36.7661 184.71 36.3742C183.741 35.9822 182.987 35.3734 182.449 34.5477C181.91 33.722 181.645 32.679 181.654 31.4195V21.4097H179.001V17.4063H181.654V12.8021H187.033V17.4063Z" fill="black"/>
<path d="M165.401 28.692C165.41 29.8263 165.718 30.7233 166.324 31.3822C166.93 32.0409 167.742 32.37 168.761 32.37C169.409 32.37 170.015 32.2247 170.579 31.9328C171.143 31.6325 171.598 31.1898 171.943 30.6059C172.297 30.0221 172.469 29.3008 172.46 28.4418V17.4063H177.84V36.6244H172.675V33.1334H172.473C172.036 34.2595 171.307 35.1648 170.288 35.8488C169.278 36.5327 168.045 36.8746 166.589 36.8746C165.292 36.8745 164.152 36.5825 163.167 35.9986C162.182 35.4147 161.411 34.585 160.856 33.5091C160.309 32.433 160.031 31.1439 160.022 29.6425V17.4063H165.401V28.692Z" fill="black"/>
<path d="M73.468 21.5725H84.5676V11H90.0233V36.6244H84.5676V26.039H73.468V36.6244H68V11H73.468V21.5725Z" fill="black"/>
<path d="M117.507 36.6244H112.127V11H117.507V36.6244Z" fill="black"/>
<path d="M125.417 36.6244H120.038V11H125.417V36.6244Z" fill="black"/>
<path d="M222.308 17.131C222.577 17.131 222.867 17.1478 223.179 17.1812C223.49 17.2146 223.764 17.2604 224 17.3188V22.0477C223.747 21.9727 223.398 21.9061 222.952 21.8477C222.506 21.7893 222.097 21.7603 221.727 21.7603C220.935 21.7603 220.228 21.9315 219.605 22.2735C218.99 22.6072 218.503 23.0745 218.141 23.6749C217.787 24.2755 217.61 24.9676 217.61 25.7516V36.6244H212.231V17.4063H217.446V20.7596H217.648C218.001 19.5668 218.595 18.6653 219.428 18.0564C220.262 17.4393 221.222 17.131 222.308 17.131Z" fill="black"/>
<defs>
<clipPath id="clip0_6_31">
<rect width="48" height="48" rx="6" fill="white"/>
</clipPath>
</defs>
</svg>
