<svg width="164" height="26" viewBox="0 0 164 26" fill="none" xmlns="http://www.w3.org/2000/svg">
<path fill-rule="evenodd" clip-rule="evenodd" d="M31.9543 6.76712C37.4962 6.76729 40.7661 10.7385 40.6284 17.0917H26.9287C27.1353 20.4753 29.1313 22.7892 32.3325 22.7893C34.7077 22.7893 36.2219 21.6834 36.876 19.6807H40.5601C39.6995 23.5134 36.463 26 32.2979 26C26.6527 25.9998 23.004 22.098 23.004 16.47C23.004 10.3583 27.0318 6.76712 31.9543 6.76712ZM31.988 9.94415C29.5441 9.94436 27.6853 11.6017 27.1346 14.2603H36.6701C36.1537 11.498 34.5697 9.94415 31.988 9.94415Z" fill="#FFFFFF"/>
<path fill-rule="evenodd" clip-rule="evenodd" d="M65.5716 6.76712C71.0446 6.76727 74.8306 10.6345 74.8308 16.2624C74.8308 22.0286 71.0447 25.9998 65.5716 26C60.0984 26 56.3461 22.0287 56.3461 16.2624C56.3462 10.6344 60.0985 6.76712 65.5716 6.76712ZM65.537 10.117C62.439 10.117 60.3392 12.568 60.3391 16.2624C60.3391 20.0951 62.4389 22.6502 65.537 22.6502C68.635 22.6501 70.7002 20.0951 70.7002 16.2624C70.7001 12.568 68.6349 10.117 65.537 10.117Z" fill="#FFFFFF"/>
<path d="M106.471 18.7144C106.471 21.235 107.745 22.5817 110.223 22.5817C112.943 22.5816 114.733 20.5788 114.733 17.5058V7.25079H118.76V25.5511H115.181L114.871 22.7197C113.735 24.8605 111.737 26 108.949 26C104.888 25.9998 102.444 23.4792 102.443 19.4742V7.25079H106.471V18.7144Z" fill="#FFFFFF"/>
<path fill-rule="evenodd" clip-rule="evenodd" d="M142.365 6.76712C147.838 6.76737 151.624 10.6345 151.624 16.2624C151.624 22.0285 147.838 25.9997 142.365 26C136.892 26 133.139 22.0287 133.139 16.2624C133.139 10.6344 136.892 6.76712 142.365 6.76712ZM142.33 10.117C139.232 10.117 137.132 12.568 137.132 16.2624C137.132 20.0951 139.232 22.6502 142.33 22.6502C145.428 22.65 147.493 20.095 147.493 16.2624C147.493 12.5681 145.428 10.1171 142.33 10.117Z" fill="#FFFFFF"/>
<path d="M4.19888 11.3256H16.1442V1.3804H20.3441V25.5511H16.1442V14.9505H4.19888V25.5511H0V1.3804H4.19888V11.3256Z" fill="#FFFFFF"/>
<path d="M46.8968 25.5511H42.8691V0H46.8968V25.5511Z" fill="#FFFFFF"/>
<path d="M54.1001 25.5511H50.0724V0H54.1001V25.5511Z" fill="#FFFFFF"/>
<path d="M102.451 5.00632H94.5677V25.5511H90.3678V5.00632H82.4859V1.3804H102.451V5.00632Z" fill="#FFFFFF"/>
<path d="M127.674 7.25079H132.253V10.5659H127.674V20.0611C127.675 21.5801 128.432 22.3739 129.843 22.3741H132.253V25.5511H129.258C125.609 25.551 123.647 23.6517 123.647 20.1644V10.5659H120.171V7.25079H123.647V1.3804H127.674V7.25079Z" fill="#FFFFFF"/>
<path d="M164 10.8767H162.21C159.009 10.8767 157.769 12.6375 157.769 15.4689V25.5511H153.707V7.25079H157.287L157.632 10.255H157.735C158.561 8.0797 160.213 7.078 162.313 7.07798H164V10.8767Z" fill="#FFFFFF"/>
</svg>
